<svg width="256" height="256" viewBox="0 0 256 256" fill="none" xmlns="http://www.w3.org/2000/svg">
<g clip-path="url(#clip0_0_3)">
<path d="M64 192C64 227.346 35.346 256 0 256V192C0 156.654 28.654 128 64 128V192ZM128 128C163.346 128 192 156.654 192 192V256C156.654 256 128 227.346 128 192C128 227.346 99.346 256 64 256V192C64 156.654 92.654 128 128 128ZM192 128C227.346 128 256 156.654 256 192V256C220.654 256 192 227.346 192 192V128ZM0 0C35.346 0 64 28.654 64 64V128C28.654 128 0 99.346 0 64V0ZM192 64C192 99.346 163.346 128 128 128C92.654 128 64 99.346 64 64V0C99.346 0 128 28.654 128 64C128 28.654 156.654 0 192 0V64ZM256 64C256 99.346 227.346 128 192 128V64C192 28.654 220.654 0 256 0V64Z" fill="#121212"/>
</g>
<defs>
<clipPath id="clip0_0_3">
<rect width="256" height="256" fill="white"/>
</clipPath>
</defs>
</svg>
